<?xml version="1.0" encoding="UTF-8"?><svg id="Layer_1" xmlns="http://www.w3.org/2000/svg" viewBox="0 0 384.75 384"><path d="m.75,258V102c2.25-2.19,4.68-3.92,8-2.4,3.29,1.5,3.55,4.43,3.55,7.58-.04,18.87-.02,37.74-.01,56.61,0,5.93,0,5.92,5.71,6.86,36.67,6.06,71.35,17.88,103.77,36.13,2.67,1.5,4.77,1.76,7.58.25,19.33-10.36,39.62-18.36,60.68-24.47,1.14-.33,2.54-.32,3.34-1.68-.43-2.25-2.48-3.27-3.96-4.68-12.42-11.81-11.78-28.85,1.9-39.25,23.27-17.69,49.79-22.74,78.28-19.05,20.68,2.68,39.49,10.38,56.72,22.07.89.6,1.76,1.47,3.22.98.07-.93.19-1.91.2-2.88.01-23.74.05-47.48,0-71.23-.02-9.48-6.84-16.3-16.35-16.3-94.97-.02-189.93-.02-284.9,0-7.53,0-13.59,4.98-15.53,12.27-.89,3.34-.22,6.75-.74,10.05-1.32,8.45-3.11,10.29-11.45,8.15,0-7.25,0-14.5,0-21.75,4.49-8.9,9.36-16.35,19.39-19.49,10.14-3.17,21.97-1.57,32.42-1.56,24.83.02,49.67.01,74.5,0,3.84,0,15.11,2.13,17.91-1.55,2.31-3.05.23-12.13,1.54-16.12,4.59-13.99,21.34-21.71,34.86-15.67,7.89,3.53,13.68,10.78,15.27,19.27,1.44,7.67-2.14,13.32,7.08,14.05,21.65,1.73,44.16.02,65.88.02,11.5,0,23,0,34.5,0,7.74,0,15.55-.16,22.63,3.44,18.58,9.45,15.25,32.05,15.27,49.52.01,11.49,0,22.97.01,34.46,0,6.32-2.72,14.3,4.42,14.49,12.92.33,33.08-25.49,38.33-2.85v21c-1.87,11.61-5.2,22.62-13.11,31.74-1.57,1.8-.44,3.51.23,5.24,5.9,15.2,9.07,30.77,7.27,47.21-2.65,24.26-13.36,44.01-32.78,58.73-21.84,16.55-46.9,21.28-73.67,18.86-4.49-.41-5.01.01-3.55,4.23,2.76,8.03,5.58,16.03,8.28,24.08,1.28,3.8,2.21,7.69,1.66,11.76-1.68,12.43-10.72,21.31-22.95,22.56-11.22,1.15-21.96-5.99-25.99-17.39-3.29-9.3-6.49-18.62-9.72-27.94-.36-1.04-.43-2.25-2.01-2.77-1.01.6-2.18,1.3-3.35,1.99-15.04,8.94-34.38.79-38.06-16.27-.77-3.55-2.31-4.35-5.56-4.32-12.49.13-24.99.19-37.48-.04-3.67-.07-5.25,1.23-6.38,4.64-5.02,15.04-10.19,30.02-15.55,44.94-4.97,13.83-18.83,20.44-32.31,15.7-13.02-4.58-19.64-18.65-14.98-32.39,7.14-21.04,14.48-42.01,21.68-63.03.49-1.44,1.65-2.88.74-4.61-1.45-.7-2.98-.38-4.44-.39-17.99-.03-35.99,0-53.98-.03-7.14-.02-13.42-2.38-18.81-7.16-4.77-4.22-7.47-9.59-9.15-15.59Zm253.5,45.42c1.88,1.75,3.82,1.84,5.59,2.26,52.44,12.25,113.51-19.23,107.44-79.52-.57-5.7-2.48-30.84-12.14-25.86-6.17,3.18-1.92,12.87-6.17,18.71-3.09,4.23-7.03,5.09-11.61,6.63-5.82,1.95-5.71,1.17-8.18,6.86-4.56,10.55-12.03,16.62-20.59,23.89-4.78,4.06-20.55,23.5-27.14,15.38-6.27-7.73,13.85-20.17,18.95-24.38,6.98-5.77,21.09-16.13,20.17-26.92-.39-4.57-7.09-9.05-10.02-11.98-2.56-2.55-9.06-11.48-12.63-12.52-3.47-1.01-12.15,3.54-14.95,5.32-5.08,3.24-8.66,8.59-12.53,13.08-8.93,10.37-17.88,20.72-26.83,31.08-9.86,11.42-19.73,22.84-29.58,34.27-4.53,5.25-9.05,10.51-13.56,15.77-3.82,4.45-9.48,9.25-11.33,14.92-3.49,10.67,6.83,20.63,17.35,16.78,10.63-3.9,21.46-17.13,29.96-24.47,5.5-4.75,23.66-25.86,31.53-22.95,12.74,4.71-10.29,20.66-13.71,23.65Zm65.32-152.27c-.81-2.08-2.29-2.67-3.52-3.43-21.34-13.26-44.31-20.35-69.69-18.59-17.25,1.19-33.01,6.35-46.95,16.7-8.52,6.33-8.9,14.95-1.03,22.15,5.11,4.67,9.5,9.93,13.09,15.84,6.27,10.3,9.67,21.45,8.45,33.54-1.3,12.81-7.5,22.52-19.47,28.18-7.5,3.54-10.5,10.61-7.33,17.18,2.15,4.46,5.85,7.64,9.62,11.19,1.53-1.61,2.86-2.9,4.06-4.29,18.94-21.94,38-43.79,56.73-65.91,6.51-7.69,13.34-14.51,23.34-17.31,2.39-.67,3.14-2.25,3.1-4.79-.15-11.38,6.53-18.07,18-18.36,1.23-.03,2.77.33,3.43-.95,2.18-4.21,4.94-8.01,8.17-11.14Zm-137.54,117.48c-.49-1.78-.83-2.94-1.13-4.11-2.58-9.96.5-20.67,8.92-26.88,7.23-5.33,14.38-7.2,17.25-16.78,1.82-6.06,1.85-23.81-4.67-27.77-5.31-3.22-20.58,4.54-26.03,6.46-41.75,14.7-77.52,38.24-109.71,68.33,38.6.99,76.75,1.3,115.37.74Zm-69.6-52.38c-1.04-1.85-2.68-2.32-4.07-3.06-24.24-12.79-50.29-21.95-77.05-27.75-3.34-.72-13.34-4.57-16.61-3.27-4.19,1.67-2.46,7.8-2.44,11.81.05,14.59,0,29.19.03,43.78.01,10.33-2.16,23.18,8.69,28.93,8.13,4.3,24.23,4.29,31.41-1.32,9.42-7.37,17.25-17.24,26.6-24.9,10.67-8.74,22.11-16.39,33.45-24.21Zm15.04,64.59c-8.06,0-16.38-.02-24.7.02-5.7.02-17.12,44.13-19.05,49.7-3.58,10.36-17.66,37.11,2.67,39.76,16.76,2.19,20.52-26.86,24.33-37.87,3.2-9.25,6.4-18.5,9.6-27.75,1.74-5.03,9.69-19.1,7.15-23.86Zm244.88-137.97c-1.06.39-1.78.56-2.41.91-12.36,6.93-27.8,6.97-39.48,14.62-3.6,2.36-9.06,7.24-8.16,12.16.85,4.64,10.45,11.29,13.82,14.68,20.32,20.43,43.31-24.18,36.23-42.36Zm-105.48,214.16c.07-1.57-.37-3.5-1.03-5.4-2.36-6.8-5.04-13.5-7.21-20.37-1.68-5.3-2.37-11.35-7.15-14.86-8.39-6.16-22.49,3.33-21.17,12.46,1.01,7.02,5.19,15.14,7.55,21.83,1.79,5.07,3.19,13.05,7.4,16.71,8.68,7.54,21.65.68,21.61-10.36Zm-133.26-53.62c1.23.29,1.82.54,2.41.55,7.35.03,14.7.05,22.06.06,4.72.01,14.73,1.94,18.94-.16,3.57-1.78,18.27-18.52,16.13-21.77-2.29-3.48-15.99-1.31-19.85-1.31-6.93,0-13.86,0-20.79,0-6.97,0-10.14-1.25-13.02,5.47-2.36,5.5-3.94,11.5-5.88,17.17ZM171.22,38.17v.02c4.66,0,11.4,1.77,13.7-2.6,3.31-6.28-2.19-16.66-7.93-19.25-7.8-3.53-16.75.6-19.22,8.73-.86,2.84-2.01,10.31.35,12.46,2.45,2.24,10.07.64,13.1.64Zm168.97,170.46c-.06-1.68-.77-2.87-1.74-3.85-7.33-7.36-14.67-14.72-22.04-22.05-3.25-3.23-15.03-13.25-14.29-1.41.4,6.27,15.05,16.57,19.39,20.9,2.35,2.34,18.14,19.72,18.68,6.42Z"/><path d="m97.12,134.53c-23.1-.04-34.57-29.04-18.27-45.13,16.33-16.11,44.92-4.06,44.99,18.92.04,14.41-12.02,26.24-26.72,26.22Zm14.4-26.47c-.03-8.04-6.23-14.1-14.37-14.06-12.78.06-18.71,15.63-9.74,24.4,9.01,8.8,24.16,2.23,24.11-10.34Z"/><path d="m69.06,130.45c18.68.12-10.43,28.69-10.01,9.84.08-3.63,6.42-9.87,10.01-9.84Z"/><path d="m103.46,151.35c-1.1,9.56-11.16,11.5-12.35.91-.95-8.46,10.41-14.9,11.91-5,.21,1.35.3,2.73.44,4.1Z"/><path d="m91.23,66.16c.02-8.27,8.54-13.95,11.8-4.2,3.11,9.3-9.06,18.05-11.57,7.24-.31-1.32-.21-2.73-.23-3.04Z"/><path d="m54.4,114.2c-10.93,0-10.9-11.95.05-12.05,11.01-.1,11.24,12.06-.05,12.06v-.02Z"/><path d="m64.89,70.17c4.71-.05,10.8,6.16,9.96,10.84-1.76,9.78-12.74,2.34-15.19-2.75-1.89-3.92.86-8.04,5.23-8.09Z"/><path d="m125.4,130.45c4.49-.13,10.76,6.65,9.84,11.31-1.81,9.23-12.27,2.1-14.83-2.66-2.09-3.9.67-8.52,4.98-8.65Z"/><path d="m129.7,70.2c18.45.3-10.6,27.96-9.96,9.58.14-3.99,5.98-9.65,9.96-9.58Z"/><path d="m140.31,102.51c7.3-.13,12.54,7.54,4.37,11.15-10.31,4.56-18.76-9.7-8.46-11.12,1.34-.18,2.73-.03,4.09-.03Z"/></svg>