<?xml version="1.0" encoding="UTF-8"?><svg id="Layer_1" xmlns="http://www.w3.org/2000/svg" viewBox="0 0 384.8 384.82"><path d="m183.75.75c5.75,0,11.5,0,17.25,0,5.64,1.68,12.39,2.77,16.14,7.81,3.74,5.03,2.13,10.84,3.02,16.61,2.27,14.73,15.04,14.64,27.48,16.4,20.54,2.9,66.23,10.56,55.72,41.47-4.43,13.05-15.12,24.81-21.52,37.08-6.74,12.92-12.43,26.63-15.21,40.98-2.81,14.49-2.69,29.71,1.21,43.99,3.27,11.98,9.19,28.51,17.74,37.75,6.98-9.31,10.59-24.01,15.13-34.71,2.66-6.26,14.2-24.61,10-30.16-2.28-3.01-8.72-4.76-11.84-6.99-3.7-2.65-6.71-5.82-8.84-9.87-3.71-7.04-4.89-16.94-.9-24.15,2.04-3.69,5.29-6.82,9.4-3.87,3.99,2.86,2.05,5.94,1.28,9.77-1.55,7.7-.44,13.08,5.96,18.14,1.85,1.46,8.72,6.68,11.49,5.84,2.2-.67,3.92-5.94,5.16-7.62,4.86-6.57,12.32-10.81,20.53-11.32,15.69-.97,29.04,11.98,28.89,27.63-.04,4.07-1.04,7.92-2.73,11.6-1.24,2.71-4.01,5.25-3.11,8.34.79,2.72,6,5.82,7.79,7.99,2.82,3.4,4.95,7.33,6.13,11.6,5.36,19.33-10.89,36.78-20.51,51.86-6.1,9.55-12.19,19.1-18.27,28.66-4.98,7.82-9.2,14.96-5.32,24.27,6.52,15.63,24.98,10.45,36.5,19.79,6.03,4.89,9.68,11.89,11.11,19.44,1.16,6.14,3.75,22.73-3.93,25.66h-3c-3.47-1.44-4.7-4.2-4.67-7.78.03-4.25.07-8.5-.08-12.74-.37-10.78-8.12-18.86-18.8-19.75-25.56-2.12-38.9-28.59-25.21-50.2,12.37-19.52,24.74-39.04,37.37-58.4,7-10.72,4.35-20.47-3.38-27.57-3.25-2.99-3.89-2.92-6.26.68-16.57,25.13-33.09,50.3-49.7,75.4-1.22,1.85-1.45,3.54-.95,5.62,3.05,12.79,4.49,25.78,4.47,38.93-.02,11.09-6.55,17.68-17.71,17.75-7.5.05-15,.16-22.49-.06-3.38-.1-5.51.98-7.36,3.87-6.41,9.99-13.08,19.8-19.63,29.7-1.18,1.79-2.41,3.5-4.33,4.56h-3.75c-6.86-5-2.8-10.67-.05-17.23,1.55-3.71,10.03-18,6.5-20.63-2.31-1.72-24.74-1.63-27.2-.05-4.88,3.13-2.16,16.11-2.18,21.31-.02,5.13,2.07,15.93-5.78,16.12-8.62.22-6.07-12.81-6.07-18.09,0-3.63,2.2-15.61-.65-18.65-2.21-2.34-10.11-1.32-11.76.82-3.36,4.34-.41,19.98-.52,25.51-.11,5.34-3.14,15.57-10.33,8.59-4.47-4.34-1.46-21.03-1.48-26.85-.02-8.6-.27-8.87-8.83-8.91-7.79-.04-11.29-.51-17.11,4.16-6.15,4.95-12.32,9.85-19.02,14.12-15.45,9.86-32.58,16.99-50.76,19.76h-20.25c-20.56-3.37-43.58-12.4-52.86-32.65-4.44-9.7-3.71-19.8-3.54-30.17.21-12.84.11-25.69.02-38.54-.14-19.66-2.91-40.26,3.4-59.22,5.28-15.87,15.95-28.97,29.82-38.19,16.64-11.06,36.57-17,56.24-19.59,6.14-.81,12.3-1.26,18.49-1.56,1.4-.07,7.09.52,8.37-1.11,3.18-4.03-4.29-20.24-5.88-24.49-3.9-10.45-8.91-20.51-14.65-30.07-5.13-8.57-11.99-16.63-16.21-25.68-8.77-18.83,9.39-30.32,25.05-35.45,10.84-3.55,22.12-5.52,33.42-6.9,6.89-.84,15.9-.49,21.09-5.95,5.2-5.46,3.46-12.89,4.54-19.63,1.62-10.03,9.5-11.64,17.95-14.8Zm-89.78,286.29c1.6,1.27,2.74.34,3.75-.19,9.44-4.93,18.45-10.12,26.86-16.69,4.94-3.86,14.43-16.7,20.99-15.73,8.39,1.24,5.39,16.83,5.39,22.76,0,10.81.02,21.62,0,32.43,0,5.64-2.83,21.36,2.37,24.65,2.79,1.77,10.75.22,14.22.21,5.36,0,10.72-.02,16.09-.02,10.72,0,21.45,0,32.17,0,5.36,0,10.72.01,16.09.02,3.73,0,11.13,1.44,14.46-.35,5.95-3.2,8.42-16.52,10.94-22.58,3.75-9.01,7.52-18.02,11.29-27.02,3.07-7.33,11.4-19.96,9.95-27.92-1.34-7.37-7.99-15.54-11.39-22.19-16.72-32.68-18.32-65.88-4.97-100.17,6.27-16.1,15.07-30.7,24.17-45.31,3.55-5.7,9.23-12.37,5.11-19.12-3.33-5.46-11.22-8.17-16.9-10.15-15.86-5.54-33.65-3.93-49.07-9.73-12.24-4.6-16.09-15.83-17.66-27.88-1.2-9.23-6.03-8.36-14.79-8.38-6.84-.02-13.13-1.46-15.16,5.56-3.49,12.03-1.8,22.88-14.94,29.5-6.92,3.48-14.89,3.41-22.39,4.4-8.57,1.13-17.1,2.71-25.44,4.98-7.04,1.92-17.63,4.49-21.89,11.01-4.41,6.75,1.79,13.18,5.51,18.75,19.44,29.1,35.87,63.05,33.95,98.92-2.03,37.82-29.03,64.99-38.7,100.25Zm-67.97-7.71c6-8.66,13.34-14.77,21.79-19.62,8.1-4.66,16.83-8.19,25.83-10.67,7.27-2,16.23-1.67,23.05-4.43,6.34-2.57,8.96-11.33,11.82-17.15,3.82-7.77,7.08-15.88,9.3-24.27,1.41-5.33,5.93-20.09,2.31-25-2.36-3.2-15.36-2.77-17.53.69-3.08,4.91,3.24,13.45-3.29,17.09-8.33,4.64-8.35-6.75-8.8-11.03-.5-4.87-.24-5.01-4.63-5.47-7.32-.77-8.27,4.28-8.33,9.83-.08,7.63,2.91,21.84-.41,28.75-2.56,5.32-8.81,5.08-11.15-.33-2.74-6.34-.03-18.68-.25-25.41-.16-5.21.91-5.95-3.62-6.39-1.83-.18-7.5,2.58-8.57,3.8-4.55,5.15,2.18,15.19-3.21,20.33-8.81,8.4-9.21-8.42-10.48-11.7-16.08,6.01-9.91,27.98-10.56,41.12-.25,4.96-4.01,13.29-10.1,7.86-3.98-3.56-2.11-13.45-2.11-18.05-7.27,16.77-5.02,37.9,8.94,50.07Zm-10.87,6.84c-1.17,1.45-.73,2.88-.73,4.19-.04,10.99.11,21.98.03,32.98-.07,9.46-1.37,18.85,3.95,27.23,9.41,14.79,29.56,21.7,46.27,22.55,9.71.49,19.7-.95,28.91-4.04,10.35-3.47,8.21-9.49,8.16-19.41-.04-9.12-.03-18.24-.02-27.35,0-4.25,2.55-20.61-1.39-23.12-.98-.63-8.73,2.41-9.64,3.09-3.23,2.44-2.52,3.3-2.64,7.64-.13,4.65,0,16.19-8.5,12.43-6.74-2.98-.39-11.01-3.59-15.04-1.71-2.15-8.63-3.22-11.07-1.63-6.78,4.42,4.46,40.84-9.61,37.07-7.63-2.04-4.55-17.49-4.55-23.04,0-3.21,1.59-11.79-.08-14.5-1.95-3.16-8.81-4.11-12.21-4.44-1.96,3.87.87,10.04-3.23,13.04-3.01,2.2-6.44,1.16-8.43-1.6-3.31-4.59.27-11.31-1.42-16.21-1.55-4.48-6.47-6.91-10.22-9.81Zm251.66,33.82l.47.39c11.95-14.27,21.28-31.92,31.57-47.44,10.69-16.12,21.43-32.22,32.04-48.39,3.96-6.04,12.77-15,14.43-21.94,1.55-6.49-2.85-5.73-7.01-3.7-3.6,1.76-9.45,4.63-10.66-2.43-.86-4.99,6.35-15.43,9.2-19.4,3-4.18,10.74-7.22,11.94.75.55,3.66-4.41,9.72,3.24,10.28,12.35.9,7.54-22.71-.52-26.69-14.18-7.01-20.9,7.57-25.28,17.83-6.68,15.63-13.39,31.25-20.03,46.9-13.26,31.23-26.28,62.56-39.38,93.85Zm-152.43,39.26c1.55,0,2.67-.85,3.85-1.52,5.35-3.05,14.85-7.56,18.61-12.72,3.8-5.21,1.89-13.88,1.88-19.87-.02-8.56-.01-17.12,0-25.67,0-4.25,2.37-21.33-.97-23.9-5.53.92-13.07,9.5-17.85,12.74-7.96,5.4-6.37,10.51-6.35,19.67.02,9.22.02,18.43.02,27.65,0,5.63-2.73,19.48.81,23.63Zm-22.73-101.57c-.59,0-1.19-.09-1.76.01-12.55,2.2-25.01,5.94-36.09,12.36-4.67,2.71-12.6,7.24-15.09,12.36-2.4,4.92-.33,4.95,4.92,6.86,7.51,2.73,29.95,9.34,36.38,2.07,3.21-3.63,3.94-13.16,5.67-17.8,1.44-3.86,6.92-11.66,5.97-15.87Zm181,76.64c7.81.13,14.62.53,21.41-.16,6.76-.69,2.62-28.16.17-32.28-7.17,10.79-14.09,21.19-21.57,32.44Z"/></svg>