<svg xmlns:xlink="http://www.w3.org/1999/xlink" xmlns="http://www.w3.org/2000/svg" class="sc-c8cece98-0 kMxDuX" color="rgb(255, 81, 0)" viewBox="0 0 24 24" width="24" height="24"><g fill="#FF5100"><path d="M2.2483 10.7878C2.12401 11.0849 2.1002 11.2485 2.1002 11.2964C2.1002 11.3443 2.12401 11.5079 2.2483 11.805C2.36554 12.0852 2.54818 12.4278 2.79802 12.8134C3.2973 13.5839 4.03267 14.4762 4.95039 15.3219C6.80197 17.0284 9.27421 18.4379 11.9222 18.4379C12.4193 18.4379 12.8222 18.8408 12.8222 19.3379C12.8222 19.835 12.4193 20.2379 11.9222 20.2379C8.64821 20.2379 5.75945 18.5155 3.73053 16.6456C2.70799 15.7032 1.87323 14.6962 1.28745 13.7922C0.994757 13.3406 0.756127 12.9022 0.587738 12.4996C0.426392 12.1139 0.3002 11.6929 0.3002 11.2964C0.3002 10.8999 0.426392 10.4789 0.587737 10.0932C0.756127 9.69064 0.994757 9.25222 1.28745 8.80055C1.87323 7.89659 2.70799 6.88963 3.73053 5.94723C5.75945 4.07733 8.64821 2.35488 11.9222 2.35488C15.1962 2.35488 18.085 4.07733 20.1139 5.94723C21.1364 6.88963 21.9712 7.8966 22.557 8.80055C22.8496 9.25222 23.0883 9.69064 23.2567 10.0932C23.418 10.4789 23.5442 10.8999 23.5442 11.2964C23.5442 11.7843 23.3519 12.3256 23.1106 12.8221C22.8562 13.3456 22.4945 13.925 22.0487 14.5178C21.75 14.9151 21.1858 14.995 20.7885 14.6962C20.3912 14.3975 20.3113 13.8333 20.6101 13.436C21.0025 12.9141 21.2982 12.4333 21.4916 12.0353C21.6982 11.6102 21.7442 11.3686 21.7442 11.2964C21.7442 11.2485 21.7204 11.0849 21.5961 10.7878C21.4789 10.5076 21.2962 10.165 21.0464 9.77942C20.5471 9.00893 19.8117 8.11662 18.894 7.27084C17.0424 5.56438 14.5702 4.15488 11.9222 4.15488C9.27421 4.15488 6.80197 5.56438 4.95039 7.27084C4.03267 8.11662 3.2973 9.00894 2.79802 9.77942C2.54818 10.165 2.36554 10.5076 2.2483 10.7878ZM18.6452 14.8695C19.1423 14.8695 19.5452 15.2724 19.5452 15.7695V18.5294H22.305C22.8021 18.5294 23.205 18.9323 23.205 19.4294C23.205 19.9265 22.8021 20.3294 22.305 20.3294H19.5452V23.0892C19.5452 23.5863 19.1423 23.9892 18.6452 23.9892C18.1481 23.9892 17.7452 23.5863 17.7452 23.0892V20.3294H14.9854C14.4883 20.3294 14.0854 19.9265 14.0854 19.4294C14.0854 18.9323 14.4883 18.5294 14.9854 18.5294H17.7452V15.7695C17.7452 15.2724 18.1481 14.8695 18.6452 14.8695ZM11.9221 6.83535C10.6168 6.83535 9.47001 7.20524 8.65037 8.02488C7.83073 8.84452 7.46084 9.99134 7.46084 11.2966C7.46084 12.6019 7.83073 13.7487 8.65038 14.5683C9.47002 15.3879 10.6168 15.7578 11.9221 15.7578C13.2274 15.7578 14.3742 15.3879 15.1938 14.5683C16.0134 13.7487 16.3833 12.6019 16.3833 11.2966C16.3833 9.99135 16.0134 8.84453 15.1938 8.02489C14.3742 7.20524 13.2274 6.83535 11.9221 6.83535ZM9.26084 11.2966C9.26084 10.3227 9.53197 9.68886 9.92316 9.29767C10.3143 8.90649 10.9482 8.63535 11.9221 8.63535C12.896 8.63535 13.5298 8.90648 13.921 9.29766C14.3122 9.68885 14.5833 10.3227 14.5833 11.2966C14.5833 12.2705 14.3122 12.9043 13.921 13.2955C13.5298 13.6867 12.896 13.9578 11.9221 13.9578C10.9481 13.9578 10.3143 13.6867 9.92315 13.2955C9.53197 12.9043 9.26084 12.2705 9.26084 11.2966Z" style="fill-rule: evenodd; clip-rule: evenodd;" fill="#FF5100"></path></g></svg>