<?xml version="1.0" encoding="UTF-8"?><svg id="Layer_1" xmlns="http://www.w3.org/2000/svg" viewBox="0 0 384 384"><path d="m192.4,325.01c-22.12,0-44.24,0-66.36,0q-5.02,0-5.03,4.86c0,8.37.03,16.75-.01,25.12-.06,9.99-7.82,17.93-17.75,17.99-14.37.09-28.74.08-43.11,0-9.69-.06-17.47-8-17.63-17.75-.02-1.12-.07-2.25,0-3.37.12-2.13-.92-2.88-2.95-2.84-3.12.07-6.25.03-9.37-.02-9.71-.15-17.63-7.99-17.66-17.71-.06-24.37-.06-48.74,0-73.11.03-9.73,7.95-17.53,17.7-17.68,3-.04,6-.1,9,0,2.42.09,3.44-.91,3.29-3.32-.24-3.79.17-7.47,2.01-10.9,3.29-6.13,8.42-9.64,15.33-9.73,14.62-.2,29.24-.14,43.86-.02,9.2.08,17.13,8.09,17.27,17.34.13,9,.12,18,0,26.99-.04,2.78.91,3.67,3.68,3.66,45.36-.07,90.73-.07,136.09,0,3.04,0,3.84-1.16,3.8-4-.13-8.5-.07-16.99-.04-25.49.04-10.89,7.75-18.53,18.72-18.55,13.62-.03,27.24-.03,40.86,0,11.21.02,18.86,7.63,18.92,18.77.03,5.21.03,5.2,5.41,5.22,3.12.02,6.29-.24,9.36.2,8.74,1.25,15.19,8.82,15.21,17.79.06,24.24.06,48.49,0,72.73-.02,9.74-7.89,17.59-17.6,17.78-2.62.05-5.27.23-7.87-.03-3.72-.38-4.64,1.16-4.58,4.69.16,9.81-4.88,16.56-13.77,18.87-1.54.4-3.21.47-4.82.47-13.75.03-27.49.05-41.24,0-10.9-.03-18.58-7.77-18.61-18.69-.03-8.37-.15-16.75.06-25.12.08-3.34-1.05-4.25-4.3-4.24-22.62.12-45.24.06-67.86.06Zm138.09-30.43c0-18.87,0-37.74,0-56.61,0-7.07-1.84-8.95-8.78-8.96-12-.01-24,0-35.99,0-6.71,0-8.7,1.98-8.7,8.7,0,38.12,0,76.23,0,114.35,0,6.4,2.06,8.4,8.6,8.41,12,.02,24,.01,35.99,0,6.96,0,8.87-1.92,8.88-8.91.01-19,0-37.99,0-56.99Zm-222,.18c0-19.12,0-38.24,0-57.36,0-6.31-2.02-8.38-8.21-8.39-12.37-.02-24.74-.02-37.11,0-5.95,0-8.13,2.16-8.14,8.13-.02,38.36-.02,76.73,0,115.09,0,6.14,2.16,8.23,8.42,8.25,12.12.02,24.24.02,36.36,0,6.68,0,8.68-2.01,8.68-8.74.01-18.99,0-37.99,0-56.98Zm84.48-17.75c-22.61,0-45.23.04-67.84-.05-2.99-.01-4.23.82-4.17,4.03.17,9.24.17,18.49,0,27.73-.05,3.03,1.03,3.82,3.92,3.81,45.23-.07,90.46-.07,135.69.01,3.23,0,4.03-1.23,3.98-4.2-.14-8.99-.21-17.99.03-26.98.09-3.54-1.12-4.43-4.51-4.41-22.36.13-44.73.07-67.09.06Zm150.04,17.37c0,10.86-.26,21.76,0,32.62.12,4.97-.68,7.79,4.17,9.43,19.17,6.47,13.31-24.51,13.31-34.13,0-9.97.01-19.94,0-29.91,0-6.35,2.52-16.57-5.06-19.13-8.43-2.85-12.26-.09-12.44,7.79-.25,11.09.02,22.23.02,33.33Zm-300.52.54c0-10.99,0-21.98,0-32.97q0-8.96-8.83-8.94c-6.65.02-8.64,2.01-8.64,8.76-.01,20.48,0,40.97,0,61.45,0,12.96.58,13.43,13.51,13.34,3.17-.02,4.06-1.15,4.03-4.17-.12-12.49-.05-24.98-.05-37.47Z"/><path d="m310.06,131.6c6.82,5.31,39.13-6.6,38.92,7.24-.2,13.45-36.33,2.61-43.96,6.98-5.32,3.04-9.34,15.4-13.03,20.69-5,7.17-10.63,13.88-16.65,20.2-13.03,13.68-27.84,25.52-43.59,35.92-14.14,9.34-30.79,22.68-48.69,16.83-15.74-5.15-31.54-17.72-44.6-27.63-14.39-10.91-27.78-23.33-39.06-37.47-5.29-6.63-10.06-13.65-14.12-21.1-1.59-2.92-2.63-6.57-5.87-8-3.93-1.74-12.15-.25-16.27-.24-11.15.02-22.31,0-33.46,0-4.61,0-23.18.7-16.09-9.74,4.13-6.08,21.96-2.78,28.46-2.78,5.5,0,11,0,16.5,0,4.36,0,12.72,1.49,16.71-.6-7.26-30.59-12.38-60.99,6.53-88.66,14.23-20.83,38.9-31.95,63.96-30.71,13.21.65,25.77,5.26,36.55,12.87,2.41,1.7,6.15,6.55,9.09,6.93,3.24.41,4.47-1.39,7.2-3.43,4.79-3.59,9.63-6.91,15.06-9.48,19.83-9.4,43.31-9.26,62.95.55,28.38,14.17,41.84,43.73,40.4,74.59-.59,12.69-2.97,24.96-6.95,37.07Zm-87.88,43.38c1.06-2.85,1.85-4.8,2.52-6.8,5.09-15.25,10.17-30.5,15.26-45.75,2.87-8.62,7.42-26.16,20.58-18.29,4.21,2.51,5.89,7.94,7.97,12.09,2.14,4.26,4.57,13.96,9.31,16.05,2.28,1.01,14.64,1.23,17.16.03,4.81-2.28,5.76-13.21,6.77-17.73,4.7-21.08,4.63-45.27-8.07-63.65-11.68-16.91-31.63-26.48-52.1-25.76-11.19.4-21.93,4.04-31.06,10.53-5.93,4.22-13.03,16.57-20.92,13.19-4.62-1.98-8.42-8.31-12.5-11.47-3.92-3.04-8.19-5.64-12.76-7.6-9.37-4.04-19.77-5.29-29.88-4.19-20.63,2.25-39.57,15.62-47.96,34.72-5.09,11.58-6.23,25-5.28,37.49.59,7.86,2.27,30.29,9.71,34.43,2.89,1.61,14.65.95,18.39.3,4.92-.86,5.32-2.84,7.32-7.2,3.59-7.81,6.97-24.42,16.54-26.82,12.46-3.12,15.21,12.71,18.16,21.03,4.09,11.53,8.19,23.07,12.28,34.6,4.56-16.41,8.7-32.95,13.03-49.42,2.3-8.75,6.06-35.44,21.73-25.16,5.9,3.87,6.1,12.68,7.46,19,1.91,8.89,3.8,17.79,5.7,26.69,3.53,16.57,7.1,33.12,10.67,49.68Zm-126.14-29.98c-.02,2.6,1.2,4.09,2.13,5.67,11.3,19.28,27.55,35.3,45.16,48.85,8.43,6.49,17.26,12.44,26.29,18.07,7.95,4.95,16.45,11.53,26.35,10.01,9.84-1.51,19.53-9.59,27.65-14.92,8.88-5.82,17.5-12.05,25.66-18.85,16.27-13.55,31.59-29.74,41.12-48.83-7.36,0-17.72,2.18-23.24-3.83-4.9-5.33-6.03-18.63-12.44-22.13-5.8,16.06-10.92,32.38-16.33,48.57-2.79,8.37-8.61,34.23-23.04,23.13-5.28-4.07-5.59-12.4-6.86-18.29-1.84-8.57-3.67-17.15-5.5-25.73-3.52-16.49-7.06-32.98-10.68-49.44-4.17,14.58-8.12,29.23-11.99,43.89-2.24,8.46-3.05,25.96-12.85,29.44-12.2,4.33-15.69-11.29-18.56-19.42-4.4-12.45-8.8-24.9-13.21-37.35-3.6,8.12-6.55,20.1-12.46,26.84-6.26,7.13-18.84,4.32-27.2,4.32Z"/><path d="m372.99,138.87c-.23,17.52-23.83-6.24-6.29-6.35,3.67-.02,6.34,2.68,6.29,6.35Z"/></svg>