<?xml version="1.0" encoding="UTF-8"?><svg id="Layer_1" xmlns="http://www.w3.org/2000/svg" viewBox="0 0 384.75 384.75"><path d="m384.75,198c-5.59,16.74-25.24,25.95-39.91,13.44-3.35-2.85-4.28-6.27-6.82-9.48-3.48-4.41-5.62-3.76-11.66-3.75-13.29.03-26.58.05-39.87.06-25.18.02-50.36,0-75.54-.05-4,0-10.36-1.65-12.64,2.39-1.56,2.77.03,9.48.04,12.81,0,4.39-.98,6.09,3.22,7.62,5.19,1.89,15.86.02,21.47.02,8.85,0,22.6-2.6,30.73,1.43,8.93,4.42,12.65,16.4,22.77,19.13,10.48,2.82,9.53-4.54,15.25-10.79,6.46-7.06,16.09-9.68,25.2-6.84,16.83,5.25,22.94,27.13,10.69,40.13-5.55,5.89-13.87,8.7-21.83,7.45-4.06-.64-7.92-2.31-11.13-4.89-3.91-3.14-4.89-8.24-8.24-11.44-5.42-5.16-14.88-.7-21.63-6.02-7.67-6.05-11.42-15.94-21.9-16.78-11.04-.88-22.52.03-33.61-.03-5.64-.03-8.95-1.62-11.12,3.18-1.05,2.31-1.34,15.62.32,17.96,3.24,4.58,25.56,1.43,31.11,1.41,13.13-.05,16,2.78,25.19,12.05,8.11,8.18,17.97,15.97,25.08,25.03,6.56,8.36-1.25,19.37,7.67,25.51,7.27,5.01,13.11,9.34,14.33,18.87,1.13,8.84-2.76,18.09-10.07,23.24-15.1,10.65-36.67.98-38.57-17.44-.87-8.37,2.67-17.04,9.52-22.04,3.13-2.28,6.78-2.76,8.68-6.23,2.14-3.92.66-10.92-1.21-14.62-4.11-8.11-14.11-14.75-20.4-21.19-3.15-3.22-6.64-8.46-10.7-10.65-4.53-2.45-11.34-1.04-16.32-1.03-7.23.02-22.23-3.72-24.65,4.05-1.3,4.19.09,11.16.09,15.56,0,4.41,1.7,14.8-.45,18.79-5.95,11.04-38.46-.54-47.51-4.12-34.46-13.67-60.85-43.68-69.91-79.61-8.69-34.43-1.05-71.69,20.88-99.68,12.04-15.37,28.02-27.58,45.92-35.35,8.94-3.88,46.3-17.68,50.87-4.28,3.41,9.99-3.35,23.34.12,33.16,1.15,3.26.75,2.9,3.92,4.23,4.97,2.08,17.28-.11,22.68-.09,13.03.05,15.28-1.75,24.55-11.05,7.05-7.07,20.84-16.21,22.65-26.15,1.57-8.63-1.51-11.42-7.93-15.92-7.41-5.21-11.58-12.37-10.93-21.73,1.25-18.15,22.26-28.98,37.73-19.05,6.95,4.46,11.28,12.51,11.25,20.78-.05,12.07-7.37,15.88-15.41,22.44-7.55,6.16-.64,17.14-6.73,25.04-7,9.08-17.01,16.87-25.09,25.02-8.87,8.94-12.2,12.15-24.92,12.11-5.97-.02-27.67-3.39-31.21,1.5-1.82,2.51-.48,10.61-.45,13.85.06,5.66-.39,6.35,5.28,7.17,11.56,1.67,25.22.35,36.91-.04,10.66-.36,16.84-10.38,24.06-17.52,3.01-2.98,5.49-5.73,9.84-6.55,4.7-.88,8.2,1.35,11.98-2.26,3.38-3.22,4.15-8.07,8.1-11.26,2.79-2.26,6.13-3.85,9.63-4.66,9.43-2.18,19.62,1.45,25.35,9.28,10.68,14.6,2.15,36.09-15.85,38.87-8.09,1.25-16.75-1.64-22.11-7.88-2.24-2.61-3.04-7.14-5.54-9.26-4.07-3.45-10.05-.93-13.61,1.84-7.09,5.53-12.63,16.74-21.15,20.09-9.91,3.89-26.08.79-36.63.76-3.62-.01-11.19-1.78-14.15.12-3.4,2.18-2.14,6.02-2.1,9.76.03,3.2-1.77,10.21,1.21,12.53,3.39,2.64,14.53.37,18.68.36,25.36-.03,50.72-.03,76.08-.02,11.64,0,23.32.28,34.96.02,6.93-.15,6.17,0,9.5-5.41,2.3-3.75,4.56-7.21,8.33-9.67,15.44-10.08,31.97.01,37.66,15.31v10.5Zm-198.3-109.91c-4.35.55-8.7.85-12.96,1.67-56.05,10.69-93.26,63.83-84.06,119.95,7.69,46.9,45.71,82.35,93.34,87.32,3.92.41,4.54-.59,4.54-4.16-.09-66.74-.07-133.49-.08-200.23,0-1.34.33-2.75-.77-4.55Zm90.89,238.4c-7.38.04-13.18,6-13.09,13.47.14,11.48,14.92,17.37,22.88,9.08,8.17-8.51,1.77-22.61-9.79-22.55Zm13.47-280.7c0-7.47-5.78-13.27-13.21-13.28-11.6-.02-17.66,14.43-9.43,22.65,8.24,8.22,22.65,2.24,22.64-9.37Zm18.76,188.37c-7.38.05-13.13,5.98-13.06,13.45.11,11.56,14.82,17.4,22.81,9.08,8.16-8.5,1.89-22.62-9.75-22.53Zm37.89-41.62c-.04,7.56,5.57,13.41,12.97,13.51,11.64.16,17.95-14.38,9.67-22.65-8.13-8.12-22.58-2.43-22.64,9.14Zm-24.42-57.59c.1-7.57-5.49-13.3-13.1-13.42-11.74-.19-17.58,14.11-9.58,22.44,8.01,8.34,22.53,2.6,22.68-9.02Z"/><path d="m.75,171c9.07-6.36,23.4-6.07,30.57-14.78,6.43-7.82,7.01-21,11.18-30.2,2.77-6.11,6.85-11.64,9.58-17.7,3.03-6.74-.37-11.05-3.21-17.55-1.87-4.27-7.07-11.78-6.83-16.5.3-5.86,8.09-10.98,11.91-14.81,4.58-4.59,8.98-9.55,13.82-13.86,6.02-5.36,9.83-2.69,16.51.31,4.95,2.22,11.3,6.5,16.61,7.43,6.35,1.11,11.48-3.78,17.05-6.66,11.6-6,24.33-8.02,35.97-13.25,11.04-4.95,9.68-23.81,17.1-32.69h42.75c5.07,3.57,6.66,13.05,8.77,18.55,1.69,4.39,7.86,14.33,6.25,19.1-1.71,5.04-6.27,5.17-9.77,1.85-6.13-5.83-4.99-18.47-9.94-25.13-3.56-4.79-6.51-3.6-12.56-3.55-4.87.04-14.94-2.17-18.82,1.29-4.26,3.81-6.13,15.48-8.28,20.79-3.44,8.48-6.33,8.86-14.97,11.08-12.44,3.2-24.46,7.96-35.65,14.25-6.6,3.71-11.02,8.39-18.85,6.28-7.09-1.91-16.2-10.67-23.57-10.35-5.18.23-10.96,9.17-14.42,12.6-5.85,5.79-7.9,6.78-4.82,14.33,2.54,6.22,8.95,14.73,9.18,21.49.25,7.12-7.39,15.21-10.51,21.44-3.13,6.25-5.81,12.72-8.02,19.35-1.95,5.84-2.32,14.15-5.36,19.41-6.17,10.66-27.22,6.15-30.97,17.97-1.31,4.12-1.31,18.37,0,22.49,2.02,6.33,8.79,6.98,14.8,9.3,4.41,1.71,11.73,2.86,14.96,6.61,4.14,4.81,4.45,15.11,6.45,21.11,2.25,6.76,4.98,13.36,8.16,19.74,2.76,5.52,9.19,12.43,10.29,18.42,1.19,6.5-4.62,14.8-7.2,20.56-3.3,7.38-5.42,9.6.58,15.84,3.44,3.57,10.85,14.11,15.74,15.08,5.34,1.06,16.32-6.75,21.29-8.79,8.62-3.54,11.17-1.86,18.93,2.75,6.06,3.6,12.38,6.77,18.89,9.47,7.65,3.17,15.5,5.46,23.5,7.53,8.95,2.32,9.73,5.55,13,14.09,2.48,6.47,3.69,16.09,10.56,18.32,4.23,1.38,18.52,1.46,22.87,0,8.76-2.95,10.33-35.1,21.2-30.81,7.52,2.97.37,14.44-1.39,19.03-2.21,5.75-4.6,19.3-10.32,22.48h-42c-9.72-6.14-5.89-25.26-15.1-31.71-4.42-3.1-13-3.61-18.24-5.43-6.37-2.21-12.58-4.84-18.61-7.86-4.34-2.18-10.9-7.98-15.76-8.31-5.27-.35-13.25,5.17-17.97,7.26-4.74,2.1-10.06,6.04-15.3,3.85-4.92-2.06-10.41-10.07-14.08-13.74-3.86-3.86-11.47-8.94-13.67-13.98-2.12-4.85.89-8.93,2.89-13.4,2.38-5.31,7.16-12.42,7.76-18.18.61-5.76-5.4-12.49-7.98-17.63-2.76-5.52-5.18-11.21-7.26-17.02-1.93-5.39-2.6-15.34-6.03-19.86-6.75-8.89-25.24-5.54-31.64-14.98v-42.75Z"/><path d="m154.71,124.99c2.74.05,4.44,1.12,5.45,3.24,1.12,2.36.55,4.51-1.3,6.12-2.07,1.79-4.44,3.22-6.61,4.89-18.71,14.42-27.67,33.73-26.53,57.03,1.08,22.14,11.38,39.76,29.85,52.35.93.63,1.93,1.18,2.78,1.91,2.37,2.03,3.17,4.47,1.48,7.31-1.58,2.67-4.51,3.47-7.5,1.88-5.67-3.02-10.54-7.14-15.09-11.62-35.18-34.63-28.67-94.95,13.08-121.17,1.47-.93,2.88-2.04,4.39-1.92Z"/></svg>